<svg width="232" height="36" viewBox="0 0 232 36" fill="none" xmlns="http://www.w3.org/2000/svg">
<mask id="mask0_35_16" style="mask-type:alpha" maskUnits="userSpaceOnUse" x="0" y="0" width="232" height="36">
<path d="M232 35.9604V0.00360107H0.0380859V35.9604H232Z" fill="white"/>
</mask>
<g mask="url(#mask0_35_16)">
<path fill-rule="evenodd" clip-rule="evenodd" d="M225.358 26.6328C226.245 26.6328 227.087 26.4132 227.896 25.9728C228.698 25.5336 229.315 25.0008 229.732 24.36V17.8068C229.314 17.1528 228.692 16.5996 227.876 16.1532C227.109 15.7135 226.241 15.4815 225.358 15.48C223.932 15.48 222.792 15.9996 221.95 17.0472C221.102 18.0936 220.677 19.4328 220.677 21.0672C220.677 22.7064 221.102 24.0396 221.95 25.08C222.792 26.1132 223.932 26.6328 225.358 26.6328ZM231.999 28.2804H229.732V26.1264C228.486 27.8004 226.849 28.6404 224.814 28.6404C222.885 28.6404 221.321 27.9528 220.121 26.5872C218.928 25.2192 218.325 23.3796 218.325 21.0672C218.325 18.78 218.928 16.9392 220.121 15.5532C221.321 14.1672 222.885 13.4736 224.814 13.4736C226.829 13.4736 228.466 14.3196 229.732 16.0128V8.32802H231.999V28.2816V28.2804ZM204.729 24.9996C205.604 26.0928 206.784 26.6328 208.276 26.6328C209.767 26.6328 210.94 26.0928 211.809 25.0008C212.67 23.9208 213.107 22.5936 213.107 21.0408C213.107 19.4868 212.67 18.1668 211.809 17.0928C210.94 16.0128 209.767 15.48 208.276 15.48C206.784 15.48 205.604 16.02 204.729 17.1072C203.854 18.1932 203.417 19.5072 203.417 21.0396C203.417 22.5936 203.854 23.9196 204.729 24.9996V24.9996ZM213.512 26.4528C212.193 27.9072 210.45 28.6404 208.276 28.6404C206.102 28.6404 204.358 27.9072 203.038 26.4528C201.72 25.0008 201.064 23.1936 201.064 21.0408C201.064 18.8868 201.72 17.0868 203.039 15.6408C204.358 14.1936 206.101 13.4736 208.276 13.4736C210.45 13.4736 212.193 14.1936 213.512 15.6396C214.831 17.0868 215.487 18.8868 215.487 21.0396C215.487 23.1936 214.831 24.9996 213.512 26.4528V26.4528ZM187.469 25.0008C188.343 26.0928 189.524 26.6328 191.009 26.6328C192.5 26.6328 193.679 26.0928 194.541 25.0008C195.41 23.9208 195.84 22.5936 195.84 21.0408C195.84 19.4868 195.41 18.1668 194.541 17.0928C193.68 16.0128 192.5 15.48 191.008 15.48C189.524 15.48 188.343 16.02 187.468 17.1072C186.586 18.1932 186.15 19.5072 186.15 21.0396C186.15 22.5936 186.586 23.9196 187.469 24.9996V25.0008ZM196.252 26.4528C194.932 27.9072 193.182 28.6404 191.008 28.6404C188.841 28.6404 187.091 27.9072 185.778 26.4528C184.459 25.0008 183.796 23.1936 183.796 21.0408C183.796 18.8868 184.459 17.0868 185.778 15.6408C187.091 14.1936 188.839 13.4736 191.008 13.4736C193.182 13.4736 194.932 14.1936 196.252 15.6396C197.563 17.0868 198.227 18.8868 198.227 21.0396C198.227 23.1936 197.563 24.9996 196.252 26.4528ZM172.753 28.6668C169.837 28.6668 167.377 27.7068 165.388 25.7796C163.394 23.8596 162.399 21.3672 162.399 18.3204C162.399 15.2664 163.394 12.7872 165.388 10.8732C167.377 8.96042 169.837 8.00042 172.753 8.00042C175.928 8.00042 178.533 9.24722 180.568 11.7396L178.573 12.9672C177.93 12.1272 177.095 11.46 176.054 10.9596C175.025 10.4619 173.896 10.2066 172.754 10.2132C170.539 10.2132 168.69 10.9728 167.212 12.5004C165.734 14.0268 164.991 15.9672 164.991 18.3204C164.991 20.6724 165.733 22.6128 167.212 24.1524C168.69 25.6872 170.539 26.4528 172.753 26.4528C173.816 26.4622 174.869 26.2441 175.842 25.8132C176.803 25.38 177.572 24.8796 178.156 24.3V20.2332H171.242V18.0204H180.661V25.2264C178.586 27.5196 175.948 28.6668 172.753 28.6668V28.6668ZM156.273 19.6932C156.208 18.8796 155.884 18.1404 155.293 17.4804C154.697 16.8204 153.829 16.4928 152.682 16.4928C151.594 16.4928 150.746 16.8204 150.143 17.4672C149.56 18.0742 149.189 18.8558 149.089 19.6932H156.275H156.273ZM152.92 28.6404C150.667 28.6404 148.804 27.9396 147.339 26.5404C145.868 25.1472 145.131 23.3124 145.131 21.0396C145.131 18.9072 145.841 17.1132 147.26 15.6528C148.678 14.2008 150.488 13.4736 152.682 13.4736C154.856 13.4736 156.613 14.2056 157.964 15.6732C159.31 17.1396 159.985 19.0536 159.985 21.4272V22.2672H149.148C149.268 23.2272 149.698 24.0192 150.448 24.66C151.19 25.2996 152.158 25.6128 153.345 25.6128C153.988 25.6128 154.69 25.4868 155.439 25.2264C156.194 24.9672 156.798 24.6204 157.236 24.18L158.926 26.6328C157.461 27.9672 155.459 28.6404 152.92 28.6404V28.6404ZM142.175 28.2804H137.86V14.3124L132.186 28.2804H130.317L124.642 14.3124V28.2804H120.354V8.32682H126.36L131.251 20.3796L136.138 8.32802H142.178V28.2816L142.175 28.2804ZM109.456 26.6328C110.345 26.6328 111.186 26.4132 111.996 25.9728C112.797 25.5336 113.414 25.0008 113.832 24.36V17.8068C113.413 17.1528 112.791 16.5996 111.982 16.1532C111.212 15.7143 110.342 15.4824 109.457 15.48C108.032 15.48 106.892 15.9996 106.049 17.0472C105.201 18.0936 104.777 19.4328 104.777 21.0672C104.777 22.7064 105.201 24.0396 106.05 25.08C106.892 26.1132 108.032 26.6328 109.457 26.6328H109.456ZM116.099 28.2804H113.832V26.1264C112.586 27.8004 110.948 28.6404 108.913 28.6404C106.984 28.6404 105.42 27.9528 104.22 26.5872C103.027 25.2192 102.424 23.3796 102.424 21.0672C102.424 18.78 103.027 16.9392 104.22 15.5532C105.42 14.1672 106.984 13.4736 108.913 13.4736C110.928 13.4736 112.565 14.3196 113.832 16.0128V8.32802H116.099V28.2816V28.2804ZM97.3861 20.1396C97.3657 18.9072 96.9424 17.7936 96.1196 16.8072C95.2921 15.8196 94.1177 15.3264 92.587 15.3264C91.1352 15.3264 89.9955 15.8136 89.1596 16.7928C88.3249 17.7732 87.88 18.8868 87.8202 20.1408H97.3873L97.3861 20.1396ZM92.8585 28.6404C90.6844 28.6404 88.9013 27.9324 87.5165 26.5272C86.1305 25.1196 85.4357 23.2932 85.4357 21.0396C85.4357 18.9276 86.1173 17.1396 87.4902 15.6732C88.8547 14.2068 90.566 13.4736 92.6205 13.4736C94.7683 13.4736 96.4784 14.2056 97.7305 15.6732C98.9897 17.1396 99.62 18.9864 99.62 21.2196V21.7872H87.8214C87.9207 23.2068 88.4433 24.3864 89.3856 25.3464C90.334 26.3064 91.5598 26.7804 93.0713 26.7804C94.8807 26.7804 96.3791 26.1732 97.5654 24.96L98.6525 26.4264C97.1672 27.9 95.2323 28.6404 92.8585 28.6404V28.6404ZM79.0317 28.2804H76.3207L71.8792 12.1872L67.4449 28.2792H64.7267L58.9925 8.32802H61.7705L66.2383 24.96L70.8591 8.32682H72.94L77.5536 24.96L81.9951 8.32682H84.772L79.0317 28.2804V28.2804ZM31.9286 12.432C32.4787 12.5988 33.0491 12.7056 33.6183 12.846C32.7633 13.3788 32.041 14.0652 31.3713 14.826C30.2508 16.098 29.3096 17.4984 28.4892 18.978C28.0109 19.8324 27.5481 20.6988 27.0841 21.558C26.4072 20.292 25.7244 19.0116 25.0212 17.7384C25.5055 16.932 26.0496 16.1664 26.6715 15.4524C27.1427 14.9244 27.6533 14.4384 28.2501 14.0652C27.8518 13.9656 27.4476 13.8924 27.0638 13.7724C26.076 13.4652 25.1611 12.9852 24.2798 12.4524C23.0325 11.6988 21.8605 10.8252 20.6802 9.96602C19.4723 9.07802 18.2597 8.18522 17.0268 7.33802C15.9672 6.61442 14.8407 6.00002 13.6269 5.56802C12.6857 5.22842 11.7183 5.02082 10.7173 5.04842C8.73456 5.10122 7.15122 5.94842 5.96491 7.52762C4.99027 8.82842 4.53942 10.314 4.65303 11.9412C4.79773 13.9212 5.71258 15.4812 7.3306 16.608C8.41118 17.3724 9.70017 17.7843 11.0223 17.7876C11.1753 17.7876 11.3272 17.754 11.4863 17.754C11.5389 17.754 11.5927 17.814 11.6453 17.8416C11.613 17.8884 11.5855 17.9736 11.5389 17.988C10.923 18.1884 10.3861 18.528 9.88858 18.9408C8.56953 20.034 7.72763 21.4212 7.50878 23.1348C7.26363 24.9948 7.81373 26.634 9.02755 28.0416C10.1074 29.3016 11.4791 30.0744 13.1366 30.2808C14.7151 30.4812 16.1382 30.048 17.4322 29.154C18.3135 28.542 19.0502 27.7812 19.7055 26.934C20.2423 26.2296 20.736 25.493 21.1836 24.7284L21.9131 26.088C22.3436 26.8944 22.7885 27.708 23.2645 28.5144C22.7024 29.4276 22.1116 30.3144 21.4491 31.1676C20.5211 32.3676 19.4735 33.4548 18.2143 34.3284C16.3726 35.6004 14.3492 36.2148 12.0962 35.934C9.73551 35.634 7.78742 34.542 6.24953 32.742C4.52746 30.7416 3.74416 28.4076 4.0826 25.7616C4.4007 23.3136 5.59419 21.348 7.47649 19.788C8.17847 19.2012 8.94742 18.714 9.82161 18.4284C9.88858 18.408 9.92206 18.294 9.97468 18.2208C9.89456 18.1812 9.82161 18.1008 9.74268 18.1008C9.52384 18.1008 9.30499 18.1488 9.08614 18.1488C7.20621 18.1403 5.37402 17.554 3.83625 16.4688C1.5306 14.8608 0.224701 12.6408 0.0261858 9.82082C-0.140041 7.50722 0.502145 5.38802 1.89534 3.53282C3.57913 1.28642 5.83216 0.080418 8.65563 0.00721796C10.0811 -0.033582 11.4588 0.266418 12.7993 0.746418C14.5214 1.35962 16.1263 2.24042 17.6379 3.27362C19.3934 4.47962 21.1179 5.74562 22.8399 7.00562C24.5177 8.23322 26.1824 9.47282 27.9642 10.5528C29.2247 11.3136 30.5162 12 31.9286 12.4332V12.432ZM39.2067 18.1452C38.9807 18.1452 38.763 18.0984 38.5442 18.0984C38.464 18.0984 38.3923 18.1788 38.3181 18.2184C38.3648 18.2916 38.3983 18.4056 38.464 18.426C39.3454 18.7116 40.1084 19.1988 40.8103 19.7856C42.6939 21.3456 43.8861 23.3124 44.2042 25.7592C44.5499 28.4052 43.7666 30.7392 42.0433 32.7384C40.5006 34.5384 38.5513 35.6316 36.1907 35.9316C33.9436 36.2124 31.9154 35.5992 30.0726 34.326C28.8205 33.4524 27.7717 32.3652 26.8377 31.1652C25.4386 29.3592 24.3192 27.3792 23.2453 25.3656C22.1045 23.232 20.972 21.0924 19.7976 18.9792C18.976 17.4984 18.0361 16.0992 16.9155 14.826C16.2459 14.0652 15.5235 13.3788 14.6745 12.846C15.2449 12.7056 15.8082 12.5988 16.3583 12.432C17.4776 12.0852 18.5192 11.586 19.5333 11.0184L19.7916 11.2056C20.7005 11.8716 21.6345 12.5592 22.6294 13.212C22.1767 13.4369 21.7063 13.6244 21.2231 13.7724C20.8404 13.8924 20.4422 13.9644 20.038 14.0652C20.6407 14.4384 21.1442 14.9256 21.6153 15.4524C22.3948 16.349 23.0749 17.328 23.6435 18.372C24.4651 19.8588 25.2604 21.366 26.0616 22.8588C26.8114 24.2724 27.6007 25.6656 28.5813 26.9316C29.2367 27.7788 29.9733 28.5396 30.8547 29.1516C32.1546 30.0456 33.5717 30.4788 35.1503 30.2796C36.8066 30.072 38.1794 29.2992 39.2593 28.0392C40.4731 26.6316 41.0232 24.9912 40.784 23.1312C40.5592 21.4188 39.7233 20.0316 38.3983 18.9384C37.908 18.5256 37.3698 18.186 36.748 17.9856C36.7073 17.9724 36.6822 17.886 36.6475 17.8392C36.7013 17.8116 36.7539 17.7516 36.8066 17.7516C36.9596 17.7516 37.1115 17.7852 37.2706 17.7852C38.5906 17.7809 39.8774 17.3691 40.9562 16.6056C42.5743 15.4788 43.4951 13.9188 43.635 11.9388C43.7474 10.3116 43.2966 8.82602 42.3219 7.52522C41.1356 5.94602 39.5511 5.09882 37.5695 5.04602C36.5686 5.01842 35.6011 5.22602 34.6659 5.56562C33.4461 5.99882 32.3196 6.61202 31.2661 7.33922C30.387 7.94719 29.5163 8.56725 28.6543 9.19922C27.5516 8.51247 26.4746 7.78518 25.4254 7.01882L25.4457 7.00562C27.169 5.74562 28.8934 4.47842 30.6562 3.27242C32.1606 2.23922 33.7654 1.35842 35.4947 0.745218C36.8341 0.265218 38.2057 -0.034782 39.6312 0.00601796C42.4547 0.078018 44.7077 1.28522 46.3987 3.53162C47.7907 5.38562 48.4269 7.50602 48.2678 9.81962C48.0693 12.6396 46.7634 14.8596 44.4494 16.4652C42.9147 17.5511 41.0845 18.1375 39.2067 18.1452V18.1452Z" fill="white"/>
</g>
</svg>
